<?xml version="1.0" encoding="UTF-8"?>
<svg id="Layer_1" data-name="Layer 1" xmlns="http://www.w3.org/2000/svg" width="434.89" height="476.47" viewBox="0 0 434.89 476.47">
  <defs>
    <style>
      .cls-1 {
        fill: #dbdbdb;
      }

      .cls-2 {
        fill: #0c5a9c;
      }
    </style>
  </defs>
  <g>
    <path class="cls-1" d="m32.93,449c-8.44,0-15.39-4.3-19.36-11.08v38.54H0v-85.86h13.57v9.6c3.96-6.79,10.75-11.25,19.19-11.25,17.04,0,27.62,14.23,27.62,29.94s-10.75,30.11-27.45,30.11m-2.82-48.3c-9.76,0-16.38,8.27-16.54,17.86,0,9.93,6.45,18.69,16.54,18.69s16.54-8.26,16.54-18.19-6.79-18.36-16.54-18.36"/>
    <path class="cls-1" d="m97.8,388.79c18.86,0,28.45,14.23,28.45,30.11,0,.83,0,2.48-.16,3.31h-43.68c0,9.93,8.11,16.54,18.2,16.54,7.12,0,12.9-3.15,17.7-7.12l6.95,7.28c-5.62,4.8-12.73,10.09-26.3,10.09-20.02,0-30.6-14.38-30.6-30.11s10.59-30.11,29.45-30.11m-15.55,25.32h31.09c-.66-8.27-7.11-15.55-15.54-15.55s-14.89,7.28-15.55,15.55"/>
    <path class="cls-1" d="m149.71,446.68h-13.72v-56.07h13.72v7.61c2.81-5.29,9.11-9.44,16.71-9.44,16.71,0,23.48,10.76,23.48,27.3v30.59h-13.56v-30.59c0-11.42-5.13-16.21-13.24-16.21-7.27,0-13.23,4.79-13.39,15.71v31.09Z"/>
    <path class="cls-1" d="m206.11,413.11v-11.26h-7.95v-11.24h7.95v-19.03h13.72v19.03h11.92v11.24h-11.92v10.92c0,17.87.83,23.65,7.28,23.65,1.16,0,2.66-.33,3.97-.49l1.65,10.42c-3.96,1.33-6.95,1.99-9.59,1.99-17.04,0-17.04-12.07-17.04-35.23"/>
    <path class="cls-1" d="m267.43,388.79c8.61,0,15.22,4.47,19.36,11.41v-9.59h13.39v56.07h-13.39v-8.92c-3.97,6.77-10.75,11.25-19.18,11.25-17.04,0-27.62-14.24-27.62-29.95s10.75-30.27,27.45-30.27m2.82,48.3c9.75,0,16.37-8.44,16.37-18.2s-6.62-18.37-16.37-18.37-16.55,8.43-16.55,18.37,6.79,18.2,16.55,18.2"/>
    <path class="cls-1" d="m325.89,446.68h-13.57v-119.09h13.57v70.64c2.98-5.29,9.09-9.44,16.71-9.44,16.86,0,23.65,10.76,23.65,27.3v30.59h-13.72v-30.59c0-11.42-5.13-16.21-13.08-16.21-7.44,0-13.56,4.79-13.56,15.71v31.09Z"/>
    <path class="cls-1" d="m374.51,418.57c0-15.71,10.26-29.78,30.11-29.78s30.27,13.89,30.27,29.78-10.25,29.94-30.27,29.94-30.11-14.22-30.11-29.94m46.82,0c0-11.91-7.29-19.86-16.71-19.86s-16.54,7.95-16.54,19.86,7.12,20.19,16.54,20.19,16.71-7.95,16.71-20.19"/>
  </g>
  <path class="cls-2" d="m211.22,87.67c-12.72,0-25.36,2.31-37.59,6.88-29.08,12.15-51.21,34.99-62.2,64.27-11.93,31.81-9.75,68.44,6,100.56,24.42,45.3,70.22,72.43,122.46,72.43,25.41,0,50.97-6.68,73.9-19.28,38.96-23.11,65.61-60.16,74.97-104.29,9.82-46.36-.75-95.74-29.03-135.48C325.17,26.55,271.63,0,212.9,0,146.84,0,87.01,32.87,52.85,87.95c-3.37,5.49-7.55,12.3-9.81,19.23-.35,1.03-1.02,4.23.27,5.77,1.08,1.26,3.38,1.59,4.45,1.59h0c2.77,0,5.7-2.77,9.85-9,20.28-28.62,43.4-49.44,70.7-63.73,24.22-12.28,51.23-18.74,78.14-18.74,63.88,0,119.02,34.95,143.94,91.23,14.62,35.53,14.5,75.24-.33,108.99-13.52,30.82-38.29,54.16-69.74,65.77-11.77,3.92-23.93,5.9-36.24,5.9-47.72,0-86.76-29.12-97.15-72.46-4.71-23.44,1.09-48.79,15.11-66.25,8.31-10.34,23.2-22.75,46.94-23.2,14.89.31,29.85,7.31,38.22,17.85,6.32,7.93,8.57,17.21,6.57,26.84-1.94,7.4-9.47,16.15-15.98,16.15-1.91,0-3.73-.69-5.23-1.98-1.39-1.47-1.59-3.05-1.88-5.25-.5-3.94-1.29-9.92-9.88-13.11-1.62-.47-3.48-.74-5.33-.74-12.09,0-20.56,11.47-22.67,22.82-1.44,11.06,1.67,21.45,9.06,29.87,9.11,10.35,24.2,16.79,39.43,16.79,1.25,0,2.47-.02,4.01-.15,18.58-2.13,34.65-11.86,45.12-27.39,12.2-18.13,15.76-42.42,9.47-65.01-12.26-37.65-47.08-62.07-88.67-62.07"/>
</svg>